<?xml version="1.0" encoding="UTF-8"?>
<svg width="552px" height="293px" viewBox="0 0 552 293" version="1.1" xmlns="http://www.w3.org/2000/svg" xmlns:xlink="http://www.w3.org/1999/xlink">
    <!-- Generator: Sketch 42 (36781) - http://www.bohemiancoding.com/sketch -->
    <title>Lockup Horizontal Centered Text</title>
    <desc>Created with Sketch.</desc>
    <defs></defs>
    <g id="Page-1" stroke="none" stroke-width="1" fill="none" fill-rule="evenodd">
        <g id="Lockup-Horizontal-Centered-Text">
            <g id="kibbl" transform="translate(276.000000, 115.000000)" fill="#752F00">
                <path d="M37.6843,56.7116 C37.6843,58.3906 37.1293,59.6856 36.0193,60.5986 C34.9093,61.5106 33.7113,61.9676 32.4283,61.9676 L31.8363,61.9676 C30.8993,61.9676 30.0353,61.7456 29.2463,61.3016 C28.4553,60.8576 27.8393,60.2906 27.3953,59.5996 L17.1063,43.4616 L11.1103,48.9406 L11.1103,56.7116 C11.1103,58.1446 10.5923,59.3766 9.5553,60.4126 C8.5193,61.4496 7.2863,61.9676 5.8543,61.9676 L5.4113,61.9676 C4.0283,61.9676 2.8073,61.4496 1.7463,60.4126 C0.6843,59.3766 0.1553,58.1446 0.1553,56.7116 L0.1553,6.8946 C0.1553,5.3156 0.6843,4.0446 1.7463,3.0826 C2.8073,2.1196 4.0283,1.6396 5.4113,1.6396 L5.8543,1.6396 C7.2363,1.6396 8.4563,2.1196 9.5193,3.0826 C10.5803,4.0446 11.1103,5.3156 11.1103,6.8946 L11.1103,34.6526 L25.1743,21.4776 C25.5693,21.2316 25.9523,21.0326 26.3223,20.8856 C26.6923,20.7366 27.1733,20.6626 27.7653,20.6626 C29.2943,20.6626 30.5653,21.1696 31.5783,22.1806 C32.5883,23.1916 33.0953,24.4636 33.0953,25.9926 C33.0953,27.4736 32.6013,28.7066 31.6153,29.6936 L25.3973,35.9116 C27.3213,38.9726 29.2203,41.9816 31.0963,44.9416 C32.9713,47.9026 34.8963,50.9136 36.8703,53.9736 C37.1663,54.3186 37.3753,54.7386 37.4993,55.2316 C37.6223,55.7256 37.6843,56.2196 37.6843,56.7116" id="Fill-26"></path>
                <path d="M196.043,56.7859 C196.043,57.6749 195.858,58.4399 195.488,59.0809 C195.118,59.7229 194.637,60.2539 194.045,60.6729 C193.452,61.0929 192.798,61.4129 192.083,61.6349 C191.367,61.8559 190.64,61.9679 189.899,61.9679 C188.814,61.9679 187.518,61.5229 186.014,60.6359 C184.508,59.7469 183.064,58.3899 181.683,56.5639 C180.301,54.7389 179.116,52.4319 178.13,49.6429 C177.142,46.8549 176.649,43.5609 176.649,39.7609 L176.649,6.8939 C176.649,5.3159 177.191,4.0449 178.278,3.0829 C179.362,2.1199 180.572,1.6399 181.905,1.6399 L182.646,1.6399 C183.978,1.6399 185.187,2.1199 186.272,3.0829 C187.357,4.0449 187.9,5.3159 187.9,6.8939 L187.9,40.0569 C187.9,42.4259 188.185,44.3759 188.752,45.9049 C189.318,47.4349 189.948,48.6689 190.64,49.6059 C191.479,50.6919 192.416,51.5299 193.452,52.1229 C194.192,52.5669 194.81,53.1719 195.303,53.9359 C195.796,54.7019 196.043,55.6509 196.043,56.7859" id="Fill-27"></path>
                <path d="M104.498,41.4084 C104.383,47.1224 100.301,51.2684 94.792,51.2684 C89.258,51.2684 85.176,47.0974 85.085,41.3784 C85.083,41.1524 85.082,39.2354 85.082,39.1424 C85.082,33.2764 89.166,29.0184 94.792,29.0184 C100.418,29.0184 104.501,33.2764 104.501,39.1424 C104.501,39.2624 104.499,41.2324 104.498,41.4084 M94.792,18.0184 C91.165,18.0184 87.816,18.8824 84.911,20.4194 L84.911,5.9024 C84.911,4.4714 84.392,3.2374 83.356,2.2014 C82.32,1.1654 81.086,0.6464 79.655,0.6464 L79.062,0.6464 C77.631,0.6464 76.398,1.1534 75.362,2.1644 C74.325,3.1764 73.807,4.4224 73.807,5.9024 L73.807,56.7114 C73.807,58.1924 74.325,59.4394 75.362,60.4504 C76.398,61.4604 77.631,61.9674 79.062,61.9674 L79.655,61.9674 C81.086,61.9674 82.32,61.4504 83.356,60.4124 C83.673,60.0954 83.925,59.7534 84.145,59.3994 C87.229,61.2204 90.847,62.2684 94.792,62.2684 C106.356,62.2684 115.258,53.3964 115.496,41.6054 C115.498,41.4754 115.501,39.2724 115.501,39.1424 C115.501,27.0994 106.598,18.0184 94.792,18.0184" id="Fill-28"></path>
                <path d="M155.4188,41.4084 C155.3038,47.1224 151.2208,51.2684 145.7118,51.2684 C140.1788,51.2684 136.0968,47.0974 136.0058,41.3784 C136.0038,41.1524 136.0028,39.2354 136.0028,39.1424 C136.0028,33.2764 140.0858,29.0184 145.7118,29.0184 C151.3378,29.0184 155.4208,33.2764 155.4208,39.1424 C155.4208,39.2624 155.4198,41.2314 155.4188,41.4084 M145.7118,18.0184 C142.0848,18.0184 138.7368,18.8824 135.8318,20.4194 L135.8318,5.9024 C135.8318,4.4714 135.3128,3.2374 134.2768,2.2014 C133.2408,1.1654 132.0058,0.6464 130.5758,0.6464 L129.9828,0.6464 C128.5508,0.6464 127.3188,1.1534 126.2828,2.1644 C125.2458,3.1764 124.7278,4.4224 124.7278,5.9024 L124.7278,56.7114 C124.7278,58.1924 125.2458,59.4394 126.2828,60.4504 C127.3188,61.4604 128.5508,61.9674 129.9828,61.9674 L130.5758,61.9674 C132.0058,61.9674 133.2408,61.4504 134.2768,60.4124 C134.5938,60.0954 134.8458,59.7534 135.0658,59.3994 C138.1488,61.2204 141.7668,62.2684 145.7118,62.2684 C157.2768,62.2684 166.1788,53.3964 166.4168,41.6054 C166.4188,41.4754 166.4208,39.2724 166.4208,39.1424 C166.4208,27.0994 157.5178,18.0184 145.7118,18.0184" id="Fill-29"></path>
                <path d="M57.7433,60.4128 C56.7073,61.4498 55.4723,61.9678 54.0423,61.9678 L53.4493,61.9678 C52.0173,61.9678 50.7853,61.4608 49.7493,60.4498 C48.7123,59.4388 48.1943,58.1918 48.1943,56.7118 L48.1943,25.9188 C48.1943,24.4378 48.7123,23.1918 49.7493,22.1808 C50.7853,21.1698 52.0173,20.6628 53.4493,20.6628 L54.0423,20.6628 C55.4723,20.6628 56.7073,21.1818 57.7433,22.2178 C58.7793,23.2538 59.2983,24.4878 59.2983,25.9188 L59.2983,56.7118 C59.2983,58.1438 58.7793,59.3768 57.7433,60.4128" id="Fill-30"></path>
                <path d="M59.6006,6.5702 C59.6006,9.8032 56.9796,12.4242 53.7466,12.4242 C50.5126,12.4242 47.8916,9.8032 47.8916,6.5702 C47.8916,3.3372 50.5126,0.7162 53.7466,0.7162 C56.9796,0.7162 59.6006,3.3372 59.6006,6.5702" id="Fill-31"></path>
            </g>
            <g id="Dog" transform="translate(75.000000, 48.000000)">
                <path d="M168.5459,15.511 C163.9689,8.369 158.2729,4.594 152.0719,4.594 C148.7559,4.594 145.4229,5.652 142.1649,7.74 C138.1389,10.319 135.5599,13.55 134.4129,17.234 C141.9999,18.271 147.3699,24.297 151.0889,30.717 C153.6839,35.196 155.3719,40.681 158.8599,44.562 C161.4889,47.487 165.3899,49.3 167.2689,52.835 C168.3969,52.617 169.4239,52.243 170.3119,51.674 C177.8289,46.859 176.9369,28.609 168.5459,15.511" id="Fill-42" fill="#C14216"></path>
                <path d="M170.0164,58.3596 C166.0934,50.0536 156.4194,50.8736 156.4204,37.9656 C156.4224,29.6856 149.2244,23.4386 142.2424,19.5806 C133.4934,14.7456 119.4914,18.3076 119.4914,18.3076 C119.2384,11.9626 123.1664,5.1416 123.1664,5.1416 C102.0374,9.1836 89.7284,24.1866 89.7284,24.1866 C74.2954,46.6006 85.3184,64.6066 85.3184,64.6066 C87.8484,69.5426 90.8944,73.7856 94.3104,77.4136 L93.3884,94.4536 C93.3884,94.4536 75.0294,118.9896 63.2714,130.3806 C53.0944,140.2396 44.0264,149.0026 44.6284,163.5676 C14.1544,134.6146 50.8804,96.1956 50.8804,96.1956 C25.1584,93.7066 15.1364,124.5006 15.1364,124.5006 L9.4604,118.6846 C9.4604,118.6846 -2.3646,133.0786 10.5104,158.8446 C20.3854,178.6046 42.9334,178.9316 48.7664,178.6686 C56.0024,190.5476 71.5394,192.1126 84.2164,192.1126 L106.4474,192.1126 L145.2134,192.1126 L149.2554,192.1126 C149.2224,191.7216 149.2104,191.3026 149.1874,190.8986 L150.6204,190.9486 L152.1164,163.7846 C152.1284,163.7296 152.1414,163.6746 152.1534,163.6196 L155.2104,151.8126 C156.4524,147.5836 157.8454,143.3426 159.3824,139.1856 C162.6714,130.2946 164.0754,122.5706 164.4484,116.1206 L164.5604,115.6906 L164.4724,115.7576 C165.2264,101.3416 160.7984,93.4386 160.7984,93.4386 L160.0514,89.7506 C173.9044,83.5806 175.7684,70.5366 170.0164,58.3596" id="Fill-43" fill="#FED777"></path>
                <path d="M88.2803,105.252 C88.2803,105.252 105.6903,131.224 122.2803,142.775 L133.2213,134.721 L96.9183,95.093 L88.2803,105.252 Z" id="Fill-44" fill="#F6A96B"></path>
                <path d="M15.4454,136.6936 L10.2044,117.5686 L5.0244,134.0546 L10.5104,158.8446 L25.2864,174.8286 L42.1114,174.8286 L44.5914,169.0416 L38.3914,159.7586 C20.4534,161.7846 13.9404,141.1906 15.4454,136.6936" id="Fill-45" fill="#F6A96B"></path>
                <path d="M93.3882,163.1621 C86.5722,170.7871 73.4222,174.1331 66.5722,170.7871 C51.4882,163.4191 55.0422,145.5431 55.0422,145.5431 L49.3702,144.6901 L44.5922,169.0411 L55.0552,186.2941 L81.5042,190.9491 L104.2722,189.4661 L98.3322,165.9391 L93.3882,163.1621 Z" id="Fill-46" fill="#F6A96B"></path>
                <path d="M121.7383,169.0415 C121.5923,169.4915 121.4163,169.9125 121.3283,170.3335 C119.9463,176.9485 119.4953,180.0385 113.8633,180.2935 C107.8633,180.5655 101.5773,164.9405 101.5773,164.9405 L106.1063,190.9485 L124.8213,190.0555 L124.8213,179.7895 C124.8213,179.7895 124.1203,161.6905 121.7383,169.0415" id="Fill-47" fill="#F6A96B"></path>
                <path d="M146.1475,173.1204 C145.9495,173.5504 145.7625,173.9614 145.5865,174.3554 C142.8895,180.3804 142.5645,182.1334 136.9395,181.7594 C129.9465,181.2934 130.1015,170.7874 130.1015,170.7874 L128.0255,193.0174 L146.7145,194.3524 L147.9325,184.1584 C147.9325,184.1584 149.3845,166.1034 146.1475,173.1204" id="Fill-48" fill="#F6A96B"></path>
                <path d="M129.5996,94.1582 L152.4356,91.2822 C89.7506,84.6232 98.3316,41.0232 98.3316,41.0232 L87.0326,65.6952 L94.9076,80.9402 L129.5996,94.1582 Z" id="Fill-49" fill="#F6A96B"></path>
                <path d="M149.9385,96.5513 C143.1965,98.0353 137.0985,97.4133 130.2865,96.5453 C129.3465,96.4253 128.4115,96.2913 127.4785,96.1463 C124.9375,96.1223 122.4055,95.9283 119.9115,95.4533 C115.4415,94.6013 111.6725,93.0023 108.0935,90.5213 C103.2165,88.2213 98.6465,85.3333 93.4255,83.8603 C94.5575,103.7603 126.4735,134.0543 126.4735,134.0543 C153.6485,113.4523 158.7745,100.4633 159.3275,94.3633 C156.5445,95.8093 152.7335,95.9363 149.9385,96.5513" id="Fill-50" fill="#FF5F4A"></path>
                <path d="M125.7377,192.1122 L125.7377,161.7842" id="Fill-51" fill="#FFFFFF"></path>
                <path d="M143.0873,113.6594 C143.0873,113.6594 145.3323,110.3364 143.6203,109.3574 C141.2263,107.9864 133.9623,108.7344 127.2693,107.8314 C119.4373,106.7754 112.8883,103.7174 110.2863,104.3034 C108.3763,104.7344 109.4343,108.7554 109.4343,108.7554 L103.2513,106.8444 L96.7703,98.9504 L94.2903,79.7444 L112.0473,89.7144 L143.6243,93.4384 L157.7073,90.6954 L156.8473,102.3034 L143.0873,113.6594 Z" id="Fill-52" fill="#C14216"></path>
                <path d="M162.8197,15.106 C162.8197,15.106 168.0877,31.782 164.5597,36.231 C161.0327,40.679 158.2727,37.599 158.2727,37.599 L162.0247,47.579 L168.5917,52.506 L173.0737,45.197 L175.4357,33.806 L166.8537,13.609 L162.8197,15.106 Z" id="Fill-53" fill="#931D10"></path>
                <path d="M72.7681,70.3705 C72.1161,70.3705 71.4711,70.2975 70.8531,70.1505 C62.1791,68.0955 57.0131,50.4965 60.6181,35.2785 C63.1401,24.6345 69.2831,18.7705 77.9151,18.7705 C79.5131,18.7705 81.1841,18.9745 82.8811,19.3765 C93.8611,21.9785 98.6271,31.0895 95.6281,43.7475 C92.3271,57.6815 81.4311,70.3705 72.7681,70.3705" id="Fill-54" fill="#C14216"></path>
                <path d="M72.3188,24.52 C72.3188,24.52 64.2868,34.041 68.6198,47.533 C72.7158,60.285 82.8758,57.127 88.8528,48.993 C89.1988,48.522 89.5298,48.035 89.8458,47.533 C95.6198,38.357 88.4108,59.473 88.4108,59.473 L77.9948,69.37 L68.8448,69.37 L62.6198,61.024 L60.3408,44.368 L63.7628,27.148 L71.2868,21.024 L72.3188,24.52 Z" id="Fill-55" fill="#931D10"></path>
                <path d="M93.2005,162.6065 L93.0575,162.1195 C93.1075,162.3005 93.1555,162.4635 93.2005,162.6065" id="Fill-56" fill="#FED777"></path>
                <path d="M104.2723,169.0416 L104.2703,169.0156 L104.2433,168.9256 C104.2513,168.9646 104.2653,169.0026 104.2723,169.0416" id="Fill-57" fill="#FED777"></path>
                <path d="M113.2449,37.5987 C109.4909,37.5987 106.4469,42.0457 106.4469,47.5327 C106.4469,53.0187 109.4909,57.4667 113.2449,57.4667 C116.9989,57.4667 120.0429,53.0187 120.0429,47.5327 C120.0429,42.0457 116.9989,37.5987 113.2449,37.5987" id="Fill-58" fill="#752F00"></path>
                <path d="M167.9338,47.9615 C167.6478,48.1445 167.3188,48.2795 166.9638,48.3885 C166.7758,48.2425 166.5838,48.0935 166.4008,47.9525 C162.9268,45.2785 160.8298,43.6655 160.8298,37.9665 C160.8308,29.8575 155.4768,22.2845 145.7318,16.5085 C144.6958,15.6585 144.2338,14.8285 144.1718,13.7015 C144.0938,12.3065 144.9908,11.3245 145.5528,10.8495 C146.9258,9.6895 149.9398,9.0035 152.0718,9.0035 L152.0728,9.0035 C157.9128,9.0035 162.2358,13.8365 164.8328,17.8905 C172.1958,29.3815 172.8318,44.8235 167.9338,47.9615 M167.5088,77.0115 C165.7268,81.3035 161.9308,84.5085 156.2268,86.5405 C149.7958,88.8335 142.7198,90.0445 135.7638,90.0445 C117.9228,90.0445 102.8458,82.5365 93.3098,69.2235 C90.7328,64.7855 92.5578,61.2495 93.1908,60.2545 C93.2528,60.1595 93.3208,60.0685 93.3828,59.9725 C93.3828,59.9715 93.3888,59.9645 93.3888,59.9645 L93.3878,59.9645 C96.3518,55.3445 98.6628,50.0655 99.9178,44.7635 C101.5788,37.7535 101.1238,31.8445 99.1038,27.1475 L99.1078,27.1485 C99.1078,27.1485 99.0988,27.1315 99.0948,27.1245 C99.0218,26.9555 98.9398,26.7935 98.8628,26.6275 C98.3138,25.3245 97.2508,21.8005 100.2608,18.9375 L100.2418,18.9215 C106.1438,14.1225 115.4658,10.3735 116.9048,11.3165 C118.6068,12.4325 116.7438,17.3755 116.7728,23.5355 L120.5728,22.5815 C120.6168,22.5695 125.1278,21.4525 130.3268,21.4525 C134.3748,21.4525 137.7568,22.1385 140.1088,23.4395 C144.1838,25.6905 150.7728,30.2135 151.8448,36.2775 C149.0468,36.7085 146.8668,40.1655 146.8668,44.3685 C146.8668,48.8625 149.3598,52.5055 152.4348,52.5055 C153.8398,52.5055 155.1188,51.7405 156.0978,50.4875 C157.6418,52.3275 159.4738,53.6205 161.0238,54.9415 C163.9888,57.4665 166.3218,60.1685 167.5868,64.2225 C169.0498,68.9125 169.0278,73.3535 167.5088,77.0115 M151.9798,98.3065 C152.5338,99.0985 152.7428,100.1655 152.2618,101.5915 C149.0068,107.5455 141.9548,116.3385 126.8358,128.2065 C123.3278,124.6465 116.9248,117.8635 111.0208,110.1035 C106.2038,103.7715 102.6698,98.0455 100.4668,93.0995 C100.3338,92.3735 100.1238,90.6625 100.9338,89.9475 C101.4068,89.5295 101.8188,89.4985 102.1328,89.5815 C111.6878,95.6215 123.1418,98.8635 135.7638,98.8635 C140.1328,98.8635 144.5428,98.4295 148.8548,97.6165 L148.7648,97.7555 C148.7648,97.7555 151.3368,97.3885 151.9798,98.3065 M155.2478,137.6555 C149.5058,153.1765 145.8368,169.0675 144.9128,181.7135 L144.8758,181.7175 C144.6308,187.1685 143.2228,187.5375 141.8748,187.5375 C140.5278,187.5375 138.5658,187.2865 135.0768,187.4585 C131.0418,187.6565 130.1548,184.6685 130.1468,181.9915 L130.1468,171.9935 C130.1968,169.4605 129.3858,168.0515 128.9748,167.3775 C128.5558,166.6885 127.5188,165.2965 125.9878,165.2965 C124.4568,165.2965 123.1718,166.4285 122.6758,167.1585 C121.9888,168.1685 121.2058,169.5015 121.3438,172.1185 L121.3278,172.0935 L121.3278,182.1405 C121.0188,187.0995 119.6618,187.4605 118.3578,187.4605 C117.0108,187.4605 116.3368,187.3355 112.8458,187.4585 C110.1978,187.5505 109.0318,185.0655 108.6218,183.8595 L108.4448,183.2555 C108.4408,183.2375 108.4368,183.2185 108.4368,183.2185 L108.4338,183.2195 L104.2698,169.0155 L104.2718,169.0415 C104.2658,169.0025 104.2508,168.9645 104.2438,168.9255 L103.8928,167.7305 C102.2648,163.3775 95.7798,157.1685 93.3848,158.4045 C92.4558,158.8835 92.6548,160.2835 93.6258,164.0475 C93.8158,164.7845 96.7718,174.8415 98.7628,181.6025 C99.1008,183.2425 99.4238,185.5045 98.8218,186.2195 C98.1108,187.0645 97.6348,187.5375 95.6058,187.7025 L84.2158,187.7025 C63.0788,187.7025 52.8248,182.3515 49.9308,169.8075 C49.2568,166.8905 48.9698,164.2375 49.0038,161.7765 L49.0928,161.6745 C49.0628,161.6485 49.0358,161.6215 49.0058,161.5955 C49.2428,150.1195 56.6708,142.9135 66.3398,133.5455 C73.9328,126.1905 84.0028,113.7575 90.4788,105.4815 C91.1058,104.9675 92.5588,103.9335 94.0148,104.0025 C95.4838,104.0725 97.2178,105.9535 97.9608,106.8455 C107.3058,121.6565 120.9478,134.8905 123.4368,137.2525 L126.1538,139.8305 L129.1368,137.5675 C141.1778,128.4395 149.1608,120.6265 154.3988,114.0775 C155.2568,113.2795 156.7398,112.1095 157.6758,112.5455 C158.9458,113.1385 159.7458,114.4395 159.8628,118.0195 C159.3518,123.6255 158.0048,130.2015 155.2478,137.6555 M72.7668,65.9615 C72.4528,65.9615 72.1588,65.9285 71.8698,65.8595 C69.4478,65.2865 66.9948,61.8275 65.4688,56.8335 C63.5558,50.5705 63.3458,42.8925 64.9088,36.2955 C66.9698,27.5935 71.3458,23.1805 77.9148,23.1805 C79.1708,23.1805 80.4988,23.3445 81.8648,23.6685 C84.5898,24.3135 88.2768,25.8245 90.3628,29.3535 C92.2978,32.6275 92.6348,37.2535 91.3368,42.7315 C88.3728,55.2415 78.6488,65.9615 72.7668,65.9615 M39.1718,172.2565 C38.1678,172.9885 35.6968,172.9185 32.6918,172.1125 C25.9348,169.8905 18.7608,165.4905 14.4548,156.8735 C9.8698,147.6975 7.9808,139.7715 8.5828,133.5365 L8.5908,133.5515 C8.5908,133.5515 8.9858,129.3965 10.1138,128.7525 C11.2798,128.0855 13.1968,129.6685 15.6218,137.1185 L19.3268,125.8725 C19.3508,125.8005 21.7488,118.6285 26.9908,111.9325 C28.6588,109.8015 30.4158,107.9795 32.2498,106.4405 C32.6418,106.1675 34.8428,104.5335 36.1708,105.6865 C37.5158,106.8535 36.6178,108.1325 36.0888,109.3395 C31.6198,117.4055 27.6768,127.7555 28.1648,138.7115 C28.5298,146.9055 31.3168,154.3895 36.4478,161.0665 L36.4158,161.0495 C36.4158,161.0495 39.2888,164.8795 39.9068,166.8065 C40.3368,168.1485 40.7798,171.0855 39.1718,172.2565 M173.2238,55.0095 C183.2068,47.8505 181.1868,27.0685 172.2588,13.1325 C166.5138,4.1655 159.2888,0.1845 152.0728,0.1845 L152.0708,0.1845 C147.8748,0.1845 143.6808,1.5315 139.7858,4.0265 C136.1938,6.3285 133.3858,9.2545 131.5838,12.6635 C131.1658,12.6515 130.7538,12.6335 130.3268,12.6335 C128.2148,12.6335 126.2128,12.7815 124.4748,12.9825 C124.5298,6.3145 126.1698,0.1735 126.1698,0.1735 C126.1698,0.1735 121.1548,0.6915 116.7458,2.2165 C103.8008,6.6905 94.4228,11.9045 89.6948,17.2075 C87.9158,16.2915 85.9748,15.5785 83.8968,15.0865 C81.8708,14.6065 79.8668,14.3615 77.9138,14.3615 C68.0728,14.3615 59.5668,20.5855 56.3268,34.2625 C52.4448,50.6525 57.5938,71.5415 69.8368,74.4405 C70.8058,74.6705 71.7838,74.7805 72.7668,74.7805 C76.4338,74.7805 80.1668,73.2465 83.6678,70.6725 C85.3968,73.5135 87.3218,76.1585 89.4238,78.6015 C88.6958,82.0715 88.9938,85.8585 90.0228,89.7875 L89.3318,92.5085 C86.2668,96.5645 70.4798,117.2555 60.1348,127.2795 C52.4298,134.7425 44.5568,142.3755 41.5098,152.8745 C38.7388,148.3915 37.2128,143.5385 36.9758,138.3545 C36.0658,118.3985 53.8908,99.4275 54.0668,99.2425 L60.3408,92.6795 C46.2888,89.3185 21.2798,96.0525 12.8168,118.9345 L9.5168,112.3855 C9.5168,112.3855 1.9048,118.9345 0.7748,132.8955 C0.1578,140.5235 1.1638,150.0035 6.5658,160.8155 C16.5368,180.7675 37.4758,183.0995 46.4548,183.1315 C56.4648,196.5165 75.9308,196.5215 84.2158,196.5215 L103.1448,196.5215 L130.4118,196.5215 L154.0468,196.5215 L153.6498,191.7455 C152.6428,179.6725 156.5168,159.6425 163.5178,140.7155 C173.6368,113.3585 166.9248,96.0555 165.0698,92.1245 C170.0288,89.2165 173.6418,85.2385 175.6528,80.3945 C178.5638,73.3855 177.9778,64.8915 174.0028,56.4755 C173.7588,55.9605 173.4978,55.4735 173.2238,55.0095" id="Fill-59" fill="#752F00"></path>
                <path d="M156.4387,64.7881 C156.4387,70.1691 149.3607,77.4741 140.6297,77.4741 C131.8987,77.4741 124.8207,70.1691 124.8207,64.7881 C124.8207,59.4071 131.8987,55.0451 140.6297,55.0451 C149.3607,55.0451 156.4387,59.4071 156.4387,64.7881" id="Fill-60" fill="#931D10"></path>
                <path d="M139.8164,61.8156 C139.3564,63.0976 142.7714,69.0986 145.4444,69.0876 C147.4874,69.0786 148.8434,66.7906 148.8434,65.5916 C148.8434,64.0676 147.8254,62.5246 146.0044,61.7806 C143.1514,60.6166 140.4574,60.0286 139.8164,61.8156" id="Fill-61" fill="#C14216"></path>
            </g>
        </g>
    </g>
</svg>